<?xml version="1.0" encoding="utf-8"?>
<!-- Generator: Adobe Illustrator 26.0.2, SVG Export Plug-In . SVG Version: 6.00 Build 0)  -->
<svg version="1.1" id="Laag_1" xmlns="http://www.w3.org/2000/svg" xmlns:xlink="http://www.w3.org/1999/xlink" x="0px" y="0px"
	 viewBox="0 0 1500 800" style="enable-background:new 0 0 1500 800;" xml:space="preserve">
<path d="M102.48,229.04v345.38h31.27c4.35,0,7.88,1.39,10.58,4.16c2.7,2.77,4.05,6.11,4.05,10.01v21.83H56.12V193.04h92.25v21.83
	c0,3.9-1.35,7.24-4.05,10.01c-2.7,2.78-6.23,4.16-10.58,4.16H102.48z"/>
<path d="M491.55,401.84c0,23.85-3.94,45.94-11.81,66.26c-7.88,20.33-19.01,37.91-33.41,52.76c-14.4,14.85-31.73,26.44-51.98,34.76
	s-42.75,12.49-67.5,12.49c-24.6,0-47.02-4.16-67.27-12.49s-37.61-19.91-52.09-34.76c-14.48-14.85-25.69-32.43-33.64-52.76
	c-7.95-20.32-11.92-42.41-11.92-66.26c0-23.85,3.97-45.94,11.92-66.26c7.95-20.32,19.16-37.91,33.64-52.76
	c14.47-14.85,31.84-26.44,52.09-34.76c20.25-8.33,42.67-12.49,67.27-12.49c16.5,0,32.02,1.91,46.58,5.74
	c14.55,3.82,27.9,9.23,40.05,16.2c12.15,6.98,23.06,15.45,32.74,25.43c9.67,9.98,17.89,21.11,24.64,33.41
	c6.75,12.3,11.89,25.65,15.41,40.05C489.79,370.79,491.55,385.94,491.55,401.84z M429.68,401.84c0-17.85-2.4-33.86-7.2-48.04
	c-4.8-14.18-11.63-26.21-20.47-36.11c-8.85-9.9-19.61-17.47-32.29-22.72c-12.68-5.25-26.96-7.88-42.86-7.88
	c-15.9,0-30.19,2.63-42.86,7.88c-12.68,5.25-23.48,12.82-32.4,22.72c-8.93,9.9-15.79,21.94-20.59,36.11
	c-4.8,14.17-7.2,30.19-7.2,48.04c0,17.85,2.4,33.86,7.2,48.04c4.8,14.17,11.66,26.18,20.59,36c8.92,9.83,19.72,17.36,32.4,22.61
	c12.67,5.25,26.96,7.88,42.86,7.88c15.9,0,30.19-2.62,42.86-7.88c12.67-5.25,23.44-12.79,32.29-22.61
	c8.85-9.82,15.67-21.83,20.47-36C427.27,435.7,429.68,419.69,429.68,401.84z"/>
<path d="M605.4,375.51h14.17c5.7,0,10.42-0.79,14.18-2.36c3.75-1.58,6.98-4.09,9.67-7.54l89.77-113.62
	c3.75-4.8,7.69-8.14,11.81-10.01c4.12-1.87,9.34-2.81,15.64-2.81h52.2L703.28,374.39c-6.45,8.25-13.13,14.1-20.03,17.55
	c4.95,1.8,9.41,4.31,13.39,7.54c3.97,3.23,7.76,7.46,11.36,12.71l112.95,152.33h-53.32c-7.2,0-12.56-1.01-16.09-3.04
	c-3.53-2.03-6.49-4.99-8.89-8.89l-92.03-120.15c-2.85-4.05-6.15-6.9-9.9-8.55c-3.75-1.65-9.15-2.47-16.2-2.47H605.4v143.1h-60.52
	V239.16h60.52V375.51z"/>
<path d="M1043.92,514.56v49.95H853.34V239.16h60.53v275.4H1043.92z"/>
<path d="M1343.84,401.39v131.62c-16.5,12.15-34.09,21.04-52.76,26.66c-18.67,5.62-38.66,8.44-59.96,8.44
	c-26.55,0-50.59-4.12-72.11-12.38c-21.53-8.25-39.9-19.72-55.12-34.42c-15.23-14.7-26.96-32.25-35.21-52.65
	c-8.25-20.4-12.38-42.67-12.38-66.83c0-24.45,3.97-46.87,11.92-67.28c7.95-20.4,19.24-37.95,33.86-52.65
	c14.62-14.7,32.36-26.1,53.21-34.2c20.85-8.1,44.25-12.15,70.2-12.15c13.2,0,25.54,1.05,37.01,3.15c11.47,2.1,22.12,4.99,31.95,8.66
	c9.82,3.68,18.79,8.14,26.89,13.39c8.1,5.25,15.53,11.02,22.28,17.33l-17.33,27.45c-2.7,4.35-6.23,7.01-10.58,7.99
	c-4.35,0.98-9.08-0.11-14.17-3.26c-4.95-2.85-9.9-5.7-14.85-8.55c-4.95-2.85-10.46-5.32-16.54-7.43c-6.08-2.1-12.9-3.82-20.47-5.17
	c-7.58-1.35-16.31-2.02-26.21-2.02c-16.05,0-30.56,2.7-43.54,8.1c-12.98,5.4-24.04,13.13-33.19,23.18
	c-9.15,10.05-16.2,22.13-21.15,36.23c-4.95,14.1-7.42,29.85-7.42,47.25c0,18.6,2.66,35.21,7.99,49.84
	c5.32,14.62,12.83,27,22.5,37.12s21.34,17.85,34.99,23.18c13.65,5.33,28.87,7.99,45.68,7.99c12,0,22.72-1.27,32.17-3.83
	c9.45-2.55,18.67-6,27.67-10.35v-58.95h-40.95c-3.9,0-6.94-1.09-9.11-3.26c-2.18-2.17-3.26-4.84-3.26-7.99v-34.2H1343.84z"/>
<path d="M1468.26,610.53h-92.25V588.7c0-3.9,1.35-7.24,4.05-10.01c2.7-2.78,6.22-4.16,10.58-4.16h31.27V229.15h-31.27
	c-4.35,0-7.88-1.38-10.58-4.16c-2.7-2.77-4.05-6.11-4.05-10.01v-21.83h92.25V610.53z"/>
</svg>
